<svg xmlns="http://www.w3.org/2000/svg" width="35" height="35" viewBox="0 0 35 35">
  <path id="Icon_awesome-instagram" data-name="Icon awesome-instagram" d="M17.5,10.764a8.974,8.974,0,1,0,8.972,8.974A8.958,8.958,0,0,0,17.5,10.764Zm0,14.808a5.834,5.834,0,1,1,5.833-5.834A5.844,5.844,0,0,1,17.5,25.572ZM28.93,10.4A2.093,2.093,0,1,1,26.837,8.3,2.088,2.088,0,0,1,28.93,10.4Zm5.942,2.124c-.133-2.8-.773-5.287-2.827-7.333S27.516,2.5,24.713,2.361c-2.889-.164-11.548-.164-14.437,0C7.481,2.493,5,3.134,2.944,5.18S.258,9.71.118,12.514c-.164,2.89-.164,11.551,0,14.44.133,2.8.773,5.287,2.827,7.333s4.529,2.687,7.332,2.827c2.889.164,11.548.164,14.437,0,2.8-.133,5.286-.773,7.332-2.827s2.686-4.53,2.827-7.333c.164-2.89.164-11.543,0-14.433ZM31.139,30.055a5.906,5.906,0,0,1-3.326,3.327c-2.3.914-7.769.7-10.315.7s-8.019.2-10.315-.7a5.906,5.906,0,0,1-3.326-3.327c-.914-2.3-.7-7.771-.7-10.317s-.2-8.021.7-10.317A5.906,5.906,0,0,1,7.184,6.094c2.3-.914,7.769-.7,10.315-.7s8.019-.2,10.315.7a5.906,5.906,0,0,1,3.326,3.327c.914,2.3.7,7.771.7,10.317S32.053,27.758,31.139,30.055Z" transform="translate(0.005 -2.238)" fill="#fff"/>
</svg>
