<?xml version="1.0" standalone="no"?><svg xmlns="http://www.w3.org/2000/svg" viewBox="0 0 1440 320"><path fill="#ece4dc" fill-opacity="1" d="M0,64L20,80C40,96,80,128,120,144C160,160,200,160,240,176C280,192,320,224,360,213.3C400,203,440,149,480,138.7C520,128,560,160,600,186.7C640,213,680,235,720,229.3C760,224,800,192,840,176C880,160,920,160,960,170.7C1000,181,1040,203,1080,213.3C1120,224,1160,224,1200,197.3C1240,171,1280,117,1320,106.7C1360,96,1400,128,1420,144L1440,160L1440,320L1420,320C1400,320,1360,320,1320,320C1280,320,1240,320,1200,320C1160,320,1120,320,1080,320C1040,320,1000,320,960,320C920,320,880,320,840,320C800,320,760,320,720,320C680,320,640,320,600,320C560,320,520,320,480,320C440,320,400,320,360,320C320,320,280,320,240,320C200,320,160,320,120,320C80,320,40,320,20,320L0,320Z"></path></svg>